HIERARCHY
ROOT hip
{
  OFFSET 0 0 0
  CHANNELS 6 Xposition Yposition Zposition Zrotation Yrotation Xrotation
  JOINT abdomen
  {
    OFFSET 0 20.6881 -0.73152
    CHANNELS 3 Zrotation Xrotation Yrotation
    JOINT chest
    {
      OFFSET 0 11.7043 -0.48768
      CHANNELS 3 Zrotation Xrotation Yrotation
      JOINT neck
      {
        OFFSET 0 22.1894 -2.19456
        CHANNELS 3 Zrotation Xrotation Yrotation
        JOINT head
        {
          OFFSET -0.24384 7.07133 1.2192
          CHANNELS 3 Zrotation Xrotation Yrotation
          JOINT leftEye
          {
            OFFSET 4.14528 8.04674 8.04672
            CHANNELS 3 Zrotation Xrotation Yrotation
            End Site
            {
              OFFSET 1 0 0
            }
          }
          JOINT rightEye
          {
            OFFSET -3.6576 8.04674 8.04672
            CHANNELS 3 Zrotation Xrotation Yrotation
            End Site
            {
              OFFSET 1 0 0
            }
          }
        }
      }
      JOINT rCollar
      {
        OFFSET -2.68224 19.2634 -4.8768
        CHANNELS 3 Zrotation Xrotation Yrotation
        JOINT rShldr
        {
          OFFSET -8.77824 -1.95073 1.46304
          CHANNELS 3 Zrotation Xrotation Yrotation
          JOINT rForeArm
          {
            OFFSET -28.1742 -1.7115 0.48768
            CHANNELS 3 Zrotation Xrotation Yrotation
            JOINT rHand
            {
              OFFSET -22.5879 0.773209 7.07136
              CHANNELS 3 Zrotation Xrotation Yrotation
              JOINT rThumb1
              {
                OFFSET -1.2192 -0.487915 3.41376
                CHANNELS 3 Zrotation Xrotation Yrotation
                JOINT rThumb2
                {
                  OFFSET -3.37035 -0.52449 3.41376
                  CHANNELS 3 Zrotation Xrotation Yrotation
                  End Site
                  {
                    OFFSET -1.78271 -1.18214 1.43049
                  }
                }
              }
              JOINT rIndex1
              {
                OFFSET -7.75947 0.938293 5.60832
                CHANNELS 3 Zrotation Xrotation Yrotation
                JOINT rIndex2
                {
                  OFFSET -2.54057 -0.884171 1.56538
                  CHANNELS 3 Zrotation Xrotation Yrotation
                  End Site
                  {
                    OFFSET -1.62519 -0.234802 1.16502
                  }
                }
              }
              JOINT rMid1
              {
                OFFSET -8.24714 1.18213 3.41376
                CHANNELS 3 Zrotation Xrotation Yrotation
                JOINT rMid2
                {
                  OFFSET -3.10165 -0.590103 1.0647
                  CHANNELS 3 Zrotation Xrotation Yrotation
                  End Site
                  {
                    OFFSET -2.48547 -0.328903 0.83742
                  }
                }
              }
              JOINT rRing1
              {
                OFFSET -8.82822 0.546677 1.51678
                CHANNELS 3 Zrotation Xrotation Yrotation
                JOINT rRing2
                {
                  OFFSET -2.60934 -0.819778 -0.0198488
                  CHANNELS 3 Zrotation Xrotation Yrotation
                  End Site
                  {
                    OFFSET -2.33842 -0.294052 0.168128
                  }
                }
              }
              JOINT rPinky1
              {
                OFFSET -8.27202 -0.0477905 -0.4584
                CHANNELS 3 Zrotation Xrotation Yrotation
                JOINT rPinky2
                {
                  OFFSET -1.82734 -0.647385 -0.700984
                  CHANNELS 3 Zrotation Xrotation Yrotation
                  End Site
                  {
                    OFFSET -1.69225 -0.51767 -0.607171
                  }
                }
              }
            }
          }
        }
      }
      JOINT lCollar
      {
        OFFSET 2.68224 19.2634 -4.8768
        CHANNELS 3 Zrotation Xrotation Yrotation
        JOINT lShldr
        {
          OFFSET 8.77824 -1.95073 1.46304
          CHANNELS 3 Zrotation Xrotation Yrotation
          JOINT lForeArm
          {
            OFFSET 28.1742 -1.7115 0.48768
            CHANNELS 3 Zrotation Xrotation Yrotation
            JOINT lHand
            {
              OFFSET 22.5879 0.773209 7.07136
              CHANNELS 3 Zrotation Xrotation Yrotation
              JOINT lThumb1
              {
                OFFSET 1.2192 -0.487915 3.41376
                CHANNELS 3 Zrotation Xrotation Yrotation
                JOINT lThumb2
                {
                  OFFSET 3.37035 -0.52449 3.41376
                  CHANNELS 3 Zrotation Xrotation Yrotation
                  End Site
                  {
                    OFFSET 1.78271 -1.18214 1.43049
                  }
                }
              }
              JOINT lIndex1
              {
                OFFSET 7.75947 0.938293 5.60832
                CHANNELS 3 Zrotation Xrotation Yrotation
                JOINT lIndex2
                {
                  OFFSET 2.54057 -0.884171 1.56538
                  CHANNELS 3 Zrotation Xrotation Yrotation
                  End Site
                  {
                    OFFSET 1.62519 -0.234802 1.16502
                  }
                }
              }
              JOINT lMid1
              {
                OFFSET 8.24714 1.18213 3.41376
                CHANNELS 3 Zrotation Xrotation Yrotation
                JOINT lMid2
                {
                  OFFSET 3.10165 -0.590103 1.0647
                  CHANNELS 3 Zrotation Xrotation Yrotation
                  End Site
                  {
                    OFFSET 2.48547 -0.328903 0.83742
                  }
                }
              }
              JOINT lRing1
              {
                OFFSET 8.82822 0.546677 1.51678
                CHANNELS 3 Zrotation Xrotation Yrotation
                JOINT lRing2
                {
                  OFFSET 2.60934 -0.819778 -0.0198488
                  CHANNELS 3 Zrotation Xrotation Yrotation
                  End Site
                  {
                    OFFSET 2.33842 -0.294052 0.168128
                  }
                }
              }
              JOINT lPinky1
              {
                OFFSET 8.27202 -0.0477905 -0.4584
                CHANNELS 3 Zrotation Xrotation Yrotation
                JOINT lPinky2
                {
                  OFFSET 1.82734 -0.647385 -0.700984
                  CHANNELS 3 Zrotation Xrotation Yrotation
                  End Site
                  {
                    OFFSET 1.69225 -0.51767 -0.607171
                  }
                }
              }
            }
          }
        }
      }
    }
  }
  JOINT rButtock
  {
    OFFSET -8.77824 4.35084 1.2192
    CHANNELS 3 Zrotation Xrotation Yrotation
    JOINT rThigh
    {
      OFFSET 0 -1.70687 -2.19456
      CHANNELS 3 Zrotation Xrotation Yrotation
      JOINT rShin
      {
        OFFSET 0 -36.8199 0.73152
        CHANNELS 3 Zrotation Xrotation Yrotation
        JOINT rFoot
        {
          OFFSET 0.73152 -45.1104 -5.12064
          CHANNELS 3 Zrotation Xrotation Yrotation
          End Site
          {
            OFFSET -1.1221 -3.69964 12.103
          }
        }
      }
    }
  }
  JOINT lButtock
  {
    OFFSET 8.77824 4.35084 1.2192
    CHANNELS 3 Zrotation Xrotation Yrotation
    JOINT lThigh
    {
      OFFSET 0 -1.70687 -2.19456
      CHANNELS 3 Zrotation Xrotation Yrotation
      JOINT lShin
      {
        OFFSET 0 -36.8199 0.73152
        CHANNELS 3 Zrotation Xrotation Yrotation
        JOINT lFoot
        {
          OFFSET -0.73152 -45.1104 -5.12064
          CHANNELS 3 Zrotation Xrotation Yrotation
          End Site
          {
            OFFSET 1.1221 -3.69964 12.103
          }
        }
      }
    }
  }
}
MOTION
Frames:	6
Frame Time:	0.00833333
-65.4314 83.4938 11.9679 -161.276 -79.7772 167.481 1.0149 -4.79226 -1.08935 -0.480242 -1.0127 -0.511259 -11.9542 2.99387 -10.0371 12.5666 -12.2787 -15.9058 -0.0 0.0 0.0 -0.0 0.0 0.0 -1.22213e-14 3.69542e-13 -1.79394e-13 72.4461 36.8912 13.5368 -24.1651 -19.409 50.1364 -0.271758 14.6789 2.10982 -3.92175e-09 -1.34203e-09 2.78901e-09 -6.74529e-09 -2.3198e-09 4.86243e-09 -3.92174e-09 -1.34203e-09 2.789e-09 7.73091 5.47488 0.417314 -3.92175e-09 -1.34203e-09 2.78901e-09 2.90554 0.965183 0.102902 -3.92174e-09 -1.34203e-09 2.78901e-09 10.2786 0.731801 0.0259123 -3.92175e-09 -1.34203e-09 2.78902e-09 2.22167 -0.733487 -0.20892 -1.22673e-14 3.69538e-13 -1.79514e-13 -79.9697 24.1517 -0.529517 18.0152 -10.7027 -34.055 0.0599435 6.9671 -0.984064 1.26849e-09 -3.3825e-10 7.04838e-10 2.20069e-09 -5.85603e-10 1.21298e-09 1.26849e-09 -3.38249e-10 7.04845e-10 -7.73091 5.47488 -0.417314 1.26849e-09 -3.38246e-10 7.04838e-10 -2.90554 0.965183 -0.102902 1.26848e-09 -3.38251e-10 7.04836e-10 -10.2786 0.731801 -0.0259123 1.26849e-09 -3.38251e-10 7.04829e-10 -2.22167 -0.733487 0.20892 -2.03217e-16 0.0 -3.88251e-19 1.31533 -20.8282 2.11875 -0.828939 54.2106 0.928602 0.233275 9.45623 -10.6926 2.03217e-16 0.0 3.88251e-19 3.20468 -24.3424 -3.02272 0.0435795 20.5785 0.115469 0.353196 0.0802278 1.72723
-66.2245 83.5334 12.0645 -162.539 -79.7982 168.646 0.732463 -4.71974 -1.30876 -0.389982 -1.00941 -0.568805 -11.9017 2.89224 -9.95761 12.5159 -12.2603 -15.7479 -0.0 0.0 0.0 -0.0 0.0 0.0 6.55404e-15 1.81145e-13 -2.06686e-13 72.4659 37.2475 13.4153 -24.4036 -19.8708 50.9126 -0.286649 15.0637 2.16775 -4.00758e-09 -1.40628e-09 3.1245e-09 -6.88914e-09 -2.42986e-09 5.44375e-09 -4.00757e-09 -1.40627e-09 3.12449e-09 7.73091 5.47488 0.417314 -4.00758e-09 -1.40628e-09 3.1245e-09 2.90554 0.965183 0.102902 -4.00757e-09 -1.40628e-09 3.1245e-09 10.2786 0.731801 0.0259123 -4.00758e-09 -1.40628e-09 3.12451e-09 2.22167 -0.733487 -0.20892 6.56621e-15 1.81141e-13 -2.06786e-13 -79.9259 24.8168 -0.755351 18.1065 -10.8016 -34.2596 0.0527283 6.53885 -0.923027 1.77154e-09 -4.75213e-10 5.60516e-10 3.07011e-09 -8.23153e-10 9.58891e-10 1.77154e-09 -4.75211e-10 5.60522e-10 -7.73091 5.47488 -0.417314 1.77154e-09 -4.75207e-10 5.60516e-10 -2.90554 0.965183 -0.102902 1.77153e-09 -4.75213e-10 5.60512e-10 -10.2786 0.731801 -0.0259123 1.77154e-09 -4.75212e-10 5.60506e-10 -2.22167 -0.733487 0.20892 -2.03217e-16 0.0 -3.88251e-19 0.859226 -21.8976 1.76435 -0.878354 55.2469 0.974131 0.321657 9.84195 -11.2057 2.03217e-16 0.0 3.88251e-19 2.76422 -23.6992 -2.96725 0.0407753 20.5486 0.100788 0.368564 -0.296996 1.6428
-67.0148 83.5708 12.1556 -163.718 -79.8203 169.731 0.470315 -4.64687 -1.53141 -0.301966 -1.00804 -0.627289 -11.8489 2.79534 -9.8787 12.4652 -12.2498 -15.5915 -0.0 0.0 0.0 -0.0 0.0 0.0 1.17442e-14 6.54903e-14 -1.99001e-13 72.4723 37.5864 13.298 -24.6356 -20.3348 51.6864 -0.301794 15.4446 2.22531 -3.30253e-09 -1.18788e-09 2.71767e-09 -5.67534e-09 -2.05206e-09 4.73308e-09 -3.30252e-09 -1.18788e-09 2.71767e-09 7.73091 5.47488 0.417314 -3.30253e-09 -1.18788e-09 2.71767e-09 2.90554 0.965183 0.102902 -3.30252e-09 -1.18788e-09 2.71767e-09 10.2786 0.731801 0.0259123 -3.30253e-09 -1.18788e-09 2.71769e-09 2.22167 -0.733487 -0.20892 1.17644e-14 6.54854e-14 -1.99103e-13 -79.873 25.5167 -0.98778 18.2091 -10.9134 -34.4907 0.0457591 6.09708 -0.860167 1.57785e-09 -4.30843e-10 4.21148e-10 2.73357e-09 -7.46427e-10 7.18722e-10 1.57786e-09 -4.3084e-10 4.21156e-10 -7.73091 5.47488 -0.417314 1.57786e-09 -4.30837e-10 4.21149e-10 -2.90554 0.965183 -0.102902 1.57785e-09 -4.30842e-10 4.21146e-10 -10.2786 0.731801 -0.0259123 1.57786e-09 -4.30841e-10 4.2114e-10 -2.22167 -0.733487 0.20892 -2.03217e-16 0.0 -3.88251e-19 0.419542 -22.9557 1.40089 -0.925233 56.1723 1.01764 0.397993 10.1394 -11.731 2.03217e-16 0.0 3.88251e-19 2.34707 -23.0524 -2.90872 0.037897 20.5051 0.0844936 0.384288 -0.689093 1.56129
-67.8011 83.6069 12.2421 -164.821 -79.8442 170.747 0.225195 -4.57347 -1.75854 -0.215375 -1.00832 -0.687026 -11.7957 2.70245 -9.80011 12.4139 -12.2472 -15.4358 -0.0 0.0 0.0 -0.0 0.0 0.0 1.26658e-14 -4.9765e-14 -1.65314e-13 72.4665 37.9083 13.1833 -24.8607 -20.8004 52.4593 -0.31726 15.8235 2.28276 -2.04777e-09 -7.71358e-10 1.80365e-09 -3.51762e-09 -1.33221e-09 3.13959e-09 -2.04777e-09 -7.71358e-10 1.80364e-09 7.73091 5.47488 0.417314 -2.04777e-09 -7.71358e-10 1.80365e-09 2.90554 0.965183 0.102902 -2.04777e-09 -7.71359e-10 1.80365e-09 10.2786 0.731801 0.0259123 -2.04778e-09 -7.71359e-10 1.80366e-09 2.22167 -0.733487 -0.20892 1.26677e-14 -4.97699e-14 -1.65432e-13 -79.8107 26.2505 -1.22661 18.3216 -11.0365 -34.7465 0.039165 5.64075 -0.795346 9.30546e-10 -2.69133e-10 2.53847e-10 1.61167e-09 -4.66298e-10 4.33701e-10 9.30547e-10 -2.69129e-10 2.53857e-10 -7.73091 5.47488 -0.417314 9.30547e-10 -2.69127e-10 2.5385e-10 -2.90554 0.965183 -0.102902 9.30539e-10 -2.6913e-10 2.53846e-10 -10.2786 0.731801 -0.0259123 9.30551e-10 -2.69129e-10 2.53841e-10 -2.22167 -0.733487 0.20892 -2.03217e-16 0.0 -3.88251e-19 -0.00805297 -24.0083 1.02659 -0.969589 56.997 1.05907 0.461018 10.3526 -12.269 2.03217e-16 0.0 3.88251e-19 1.94985 -22.4005 -2.84704 0.0348939 20.4464 0.0666609 0.400623 -1.09917 1.48464
-68.5847 83.6399 12.3234 -165.867 -79.8703 171.711 -0.00613191 -4.5019 -1.98767 -0.128886 -1.00962 -0.747155 -11.7421 2.61328 -9.72271 12.3625 -12.2514 -15.2826 -0.0 0.0 0.0 -0.0 0.0 0.0 9.14649e-15 -1.39404e-13 -1.1652e-13 72.4455 38.213 13.0771 -25.0784 -21.2658 53.2284 -0.332968 16.1978 2.33974 -5.99765e-10 -2.85456e-10 7.13862e-10 -1.02835e-09 -4.9266e-10 1.23989e-09 -5.99764e-10 -2.85456e-10 7.13847e-10 7.73091 5.47488 0.417314 -5.99765e-10 -2.85455e-10 7.13855e-10 2.90554 0.965183 0.102902 -5.99767e-10 -2.85457e-10 7.13857e-10 10.2786 0.731801 0.0259123 -5.99774e-10 -2.85457e-10 7.13867e-10 2.22167 -0.733487 -0.20892 9.12214e-15 -1.39408e-13 -1.16657e-13 -79.737 27.0152 -1.47565 18.4454 -11.1733 -35.0286 0.0329544 5.17254 -0.72895 1.50892e-10 -8.51172e-11 1.15532e-10 2.60763e-10 -1.47488e-10 1.99693e-10 1.50894e-10 -8.51141e-11 1.15544e-10 -7.73091 5.47488 -0.417314 1.50892e-10 -8.51123e-11 1.15538e-10 -2.90554 0.965183 -0.102902 1.50885e-10 -8.51139e-11 1.15533e-10 -10.2786 0.731801 -0.0259123 1.50896e-10 -8.51131e-11 1.15528e-10 -2.22167 -0.733487 0.20892 -2.03217e-16 0.0 -3.88251e-19 -0.424887 -25.041 0.646128 -1.00926 57.7002 1.09676 0.509905 10.4859 -12.8143 2.03217e-16 0.0 3.88251e-19 1.57015 -21.7477 -2.78467 0.0318477 20.3745 0.0473357 0.417096 -1.51762 1.41304
-69.3646 83.6708 12.3999 -166.853 -79.8987 172.624 -0.226951 -4.43455 -2.21629 -0.0411748 -1.01132 -0.80682 -11.6884 2.52749 -9.64738 12.3117 -12.2618 -15.1335 -0.0 0.0 0.0 -0.0 0.0 0.0 1.01422e-15 -1.78209e-13 -6.35117e-14 72.4063 38.5 12.9855 -25.2884 -21.7292 53.9909 -0.348819 16.5649 2.39586 6.85056e-10 1.41074e-10 -2.2025e-10 1.18012e-09 2.44248e-10 -3.89396e-10 6.85057e-10 1.41074e-10 -2.20266e-10 7.73091 5.47488 0.417314 6.85057e-10 1.41074e-10 -2.20257e-10 2.90554 0.965183 0.102902 6.85053e-10 1.41073e-10 -2.20257e-10 10.2786 0.731801 0.0259123 6.85047e-10 1.41073e-10 -2.20247e-10 2.22167 -0.733487 -0.20892 9.73718e-16 -1.78213e-13 -6.36608e-14 -79.6495 27.8074 -1.73883 18.5817 -11.3261 -35.3387 0.0271132 4.69515 -0.661356 -4.39825e-10 2.61664e-11 6.31245e-11 -7.62826e-10 4.52784e-11 1.12561e-10 -4.39823e-10 2.61692e-11 6.31372e-11 -7.73091 5.47488 -0.417314 -4.39824e-10 2.61702e-11 6.31308e-11 -2.90554 0.965183 -0.102902 -4.39832e-10 2.61699e-11 6.31261e-11 -10.2786 0.731801 -0.0259123 -4.39821e-10 2.61708e-11 6.31213e-11 -2.22167 -0.733487 0.20892 -2.03217e-16 0.0 -3.88251e-19 -0.831467 -26.0394 0.264512 -1.0419 58.261 1.12886 0.543855 10.5435 -13.3617 2.03217e-16 0.0 3.88251e-19 1.20572 -21.0979 -2.72401 0.0288411 20.2918 0.0265634 0.433295 -1.93483 1.34664
